<svg width="24" height="24" viewBox="0 0 24 24" fill="none" xmlns="http://www.w3.org/2000/svg">
  <path d="M12 15C13.6569 15 15 13.6569 15 12C15 10.3431 13.6569 9 12 9C10.3431 9 9 10.3431 9 12C9 13.6569 10.3431 15 12 15Z" stroke="#B19CD9" stroke-width="2" stroke-linecap="round" stroke-linejoin="round"/>
  <path d="M19.4 15C19.2669 15.3996 19.2272 15.8263 19.2847 16.2446C19.3422 16.6629 19.4948 17.0606 19.73 17.4L19.79 17.49C19.906 17.6598 19.9898 17.8499 20.0371 18.0502C20.0844 18.2505 20.0944 18.4574 20.0665 18.661L20.05 18.78C20.0166 19.0256 19.9258 19.2593 19.7853 19.4612C19.6448 19.6631 19.4589 19.8275 19.2429 19.9405L19.15 19.99C18.8106 20.1752 18.413 20.2328 18.0346 20.1521C17.6562 20.0714 17.3218 19.8581 17.09 19.55L17 19.43C16.6606 19.1948 16.2629 19.0422 15.8446 18.9847C15.4263 18.9272 14.9996 18.9669 14.6 19.1C14.2004 18.9669 13.7737 18.9272 13.3554 18.9847C12.9371 19.0422 12.5394 19.1948 12.2 19.43L12.09 19.55C11.8582 19.8581 11.5238 20.0714 11.1454 20.1521C10.767 20.2328 10.3694 20.1752 10.03 19.99L9.93 19.94C9.71405 19.8275 9.52821 19.6631 9.3877 19.4612C9.24719 19.2593 9.15641 19.0256 9.123 18.78L9.1 18.66C9.07215 18.4574 9.08213 18.2505 9.12943 18.0502C9.17673 17.8499 9.26054 17.6598 9.376 17.49L9.43 17.4C9.66524 17.0606 9.81776 16.6629 9.87527 16.2446C9.93278 15.8263 9.89308 15.3996 9.76 15C9.62692 14.6004 9.58722 14.1737 9.64473 13.7554C9.70224 13.3371 9.85476 12.9394 10.09 12.6L10.15 12.51C10.266 12.3402 10.3498 12.1501 10.3971 11.9498C10.4444 11.7495 10.4544 11.5426 10.4265 11.339L10.41 11.22C10.3766 10.9744 10.2858 10.7407 10.1453 10.5388C10.0048 10.3369 9.81895 10.1725 9.603 10.0595L9.51 10.01C9.17056 9.82476 8.773 9.76716 8.39463 9.84786C8.01625 9.92857 7.68176 10.1419 7.45 10.45L7.36 10.57C7.02064 10.8052 6.62293 10.9578 6.20463 11.0153C5.78633 11.0728 5.35956 11.0331 4.96 10.9C4.56044 11.0331 4.13367 11.0728 3.71537 11.0153C3.29707 10.9578 2.89936 10.8052 2.56 10.57L2.45 10.45C2.21824 10.1419 1.88375 9.92857 1.50537 9.84786C1.127 9.76716 0.729437 9.82476 0.39 10.01L0.3 10.06C0.0840501 10.1725 -0.101793 10.3369 -0.242304 10.5388C-0.382815 10.7407 -0.473592 10.9744 -0.507 11.22L-0.53 11.34C-0.557847 11.5426 -0.54787 11.7495 -0.500571 11.9498C-0.453272 12.1501 -0.369458 12.3402 -0.254 12.51L-0.2 12.6C0.0352371 12.9394 0.187757 13.3371 0.245268 13.7554C0.302779 14.1737 0.26308 14.6004 0.13 15C0.26308 15.3996 0.302779 15.8263 0.245268 16.2446C0.187757 16.6629 0.0352371 17.0606 -0.2 17.4L-0.26 17.49C-0.375458 17.6598 -0.459272 17.8499 -0.506571 18.0502C-0.55387 18.2505 -0.563847 18.4574 -0.536 18.66L-0.52 18.78C-0.486592 19.0256 -0.395815 19.2593 -0.255304 19.4612C-0.114793 19.6631 0.0710501 19.8275 0.287 19.94L0.38 19.99C0.719437 20.1752 1.117 20.2328 1.49537 20.1521C1.87375 20.0714 2.20824 19.8581 2.44 19.55L2.53 19.43C2.86936 19.1948 3.26707 19.0422 3.68537 18.9847C4.10367 18.9272 4.53044 18.9669 4.93 19.1C5.32956 18.9669 5.75633 18.9272 6.17463 18.9847C6.59293 19.0422 6.99064 19.1948 7.33 19.43L7.44 19.55C7.67176 19.8581 8.00625 20.0714 8.38463 20.1521C8.763 20.2328 9.16056 20.1752 9.5 19.99L9.6 19.94C9.81595 19.8275 10.0018 19.6631 10.1423 19.4612C10.2828 19.2593 10.3736 19.0256 10.407 18.78L10.43 18.66C10.4578 18.4574 10.4479 18.2505 10.4006 18.0502C10.3533 17.8499 10.2695 17.6598 10.154 17.49L10.1 17.4C9.86476 17.0606 9.71224 16.6629 9.65473 16.2446C9.59722 15.8263 9.63692 15.3996 9.77 15C9.90308 14.6004 9.94278 14.1737 9.88527 13.7554C9.82776 13.3371 9.67524 12.9394 9.44 12.6L9.38 12.51C9.26454 12.3402 9.18073 12.1501 9.13343 11.9498C9.08613 11.7495 9.07615 11.5426 9.104 11.34L9.12 11.22C9.15341 10.9744 9.24419 10.7407 9.3847 10.5388C9.52521 10.3369 9.71105 10.1725 9.927 10.06L10.02 10.01C10.3594 9.82476 10.757 9.76716 11.1354 9.84786C11.5137 9.92857 11.8482 10.1419 12.08 10.45L12.17 10.57C12.5094 10.8052 12.9071 10.9578 13.3254 11.0153C13.7437 11.0728 14.1704 11.0331 14.57 10.9C14.9696 11.0331 15.3963 11.0728 15.8146 11.0153C16.2329 10.9578 16.6306 10.8052 16.97 10.57L17.08 10.45C17.3118 10.1419 17.6462 9.92857 18.0246 9.84786C18.403 9.76716 18.8006 9.82476 19.14 10.01L19.23 10.06C19.4459 10.1725 19.6318 10.3369 19.7723 10.5388C19.9128 10.7407 20.0036 10.9744 20.037 11.22L20.06 11.34C20.0878 11.5426 20.0779 11.7495 20.0306 11.9498C19.9833 12.1501 19.8995 12.3402 19.784 12.51L19.73 12.6C19.4948 12.9394 19.3422 13.3371 19.2847 13.7554C19.2272 14.1737 19.2669 14.6004 19.4 15Z" stroke="#B19CD9" stroke-width="2" stroke-linecap="round" stroke-linejoin="round"/>
</svg>